<svg xmlns="http://www.w3.org/2000/svg" xmlns:xlink="http://www.w3.org/1999/xlink" width="512" zoomAndPan="magnify" viewBox="0 0 384 383.999986" height="512" preserveAspectRatio="xMidYMid meet" version="1.0"><defs><clipPath id="2e465d18a0"><path d="M 147 72.410156 L 237 72.410156 L 237 160 L 147 160 Z M 147 72.410156 " clip-rule="nonzero"/></clipPath><clipPath id="25bca9e99f"><path d="M 37.347656 125.953125 L 346.78125 125.953125 L 346.78125 311.660156 L 37.347656 311.660156 Z M 37.347656 125.953125 " clip-rule="nonzero"/></clipPath></defs><g clip-path="url(#2e465d18a0)"><path fill="#000000" d="M 236.265625 114.472656 C 236.265625 91.277344 217.394531 72.410156 194.199219 72.410156 C 174.136719 72.410156 158.191406 82.398438 151.40625 97.734375 L 172.296875 97.734375 C 173.78125 97.734375 174.980469 98.9375 174.980469 100.417969 C 174.980469 101.898438 173.78125 103.101562 172.296875 103.101562 L 149.484375 103.101562 C 148.429688 106.824219 147.859375 110.792969 147.859375 114.957031 L 147.859375 117.539062 L 171.210938 117.539062 C 172.691406 117.539062 173.894531 118.742188 173.894531 120.222656 C 173.894531 121.703125 172.691406 122.90625 171.210938 122.90625 L 147.859375 122.90625 L 147.859375 135.0625 L 171.210938 135.0625 C 172.691406 135.0625 173.894531 136.265625 173.894531 137.746094 C 173.894531 139.226562 172.691406 140.429688 171.210938 140.429688 L 147.859375 140.429688 L 147.859375 159.613281 L 236.265625 159.613281 L 236.265625 114.472656 " fill-opacity="1" fill-rule="nonzero"/></g><path fill="#000000" d="M 236.265625 164.976562 L 147.859375 164.976562 L 147.859375 171.605469 L 236.265625 171.605469 L 236.265625 164.976562 " fill-opacity="1" fill-rule="nonzero"/><path fill="#000000" d="M 197.644531 229.820312 C 213.449219 229.820312 226.3125 216.960938 226.3125 201.15625 L 226.3125 185.886719 C 226.3125 184.40625 227.511719 183.203125 228.992188 183.203125 C 230.476562 183.203125 231.675781 184.40625 231.675781 185.886719 L 231.675781 201.15625 C 231.675781 219.917969 216.410156 235.1875 197.644531 235.1875 C 196.160156 235.1875 194.960938 233.984375 194.960938 232.503906 C 194.960938 231.023438 196.160156 229.820312 197.644531 229.820312 Z M 186.484375 239.773438 L 197.644531 239.773438 C 218.941406 239.773438 236.265625 222.449219 236.265625 201.15625 L 236.265625 176.96875 L 147.859375 176.96875 L 147.859375 201.15625 C 147.859375 222.449219 165.1875 239.773438 186.484375 239.773438 " fill-opacity="1" fill-rule="nonzero"/><g clip-path="url(#25bca9e99f)"><path fill="#000000" d="M 344.097656 162.613281 L 329.675781 162.613281 C 328.394531 162.613281 327.292969 163.519531 327.042969 164.773438 L 321.867188 190.808594 L 311.71875 128.988281 C 311.382812 126.925781 309.886719 125.984375 308.558594 125.96875 C 308.546875 125.96875 308.535156 125.96875 308.527344 125.96875 C 307.210938 125.96875 305.722656 126.875 305.347656 128.898438 L 295.546875 181.949219 L 288.699219 151.292969 C 288.347656 149.621094 287.140625 148.515625 285.621094 148.472656 C 284.410156 148.421875 282.933594 149.222656 282.488281 150.898438 L 275.335938 172.324219 C 275.320312 172.382812 275.304688 172.4375 275.289062 172.484375 L 252.140625 172.371094 C 252.136719 172.371094 252.132812 172.371094 252.128906 172.371094 C 251.945312 172.371094 251.761719 172.390625 251.589844 172.425781 C 251.503906 172.441406 251.425781 172.476562 251.347656 172.5 C 251.257812 172.527344 251.167969 172.546875 251.085938 172.582031 C 251.007812 172.613281 250.941406 172.660156 250.871094 172.699219 C 250.789062 172.742188 250.707031 172.777344 250.628906 172.828125 C 250.558594 172.875 250.5 172.933594 250.433594 172.988281 C 250.367188 173.042969 250.296875 173.09375 250.234375 173.15625 C 250.171875 173.214844 250.125 173.289062 250.066406 173.355469 C 250.011719 173.421875 249.953125 173.480469 249.90625 173.550781 C 249.855469 173.621094 249.824219 173.703125 249.78125 173.777344 C 249.738281 173.855469 249.691406 173.925781 249.660156 174.003906 C 249.625 174.085938 249.605469 174.171875 249.582031 174.257812 C 249.554688 174.339844 249.519531 174.421875 249.503906 174.507812 C 249.484375 174.59375 249.484375 174.683594 249.472656 174.769531 C 249.464844 174.859375 249.445312 174.949219 249.445312 175.042969 L 249.449219 175.046875 L 249.445312 175.054688 L 249.445312 201.929688 C 249.445312 229.789062 226.777344 252.453125 198.917969 252.453125 L 185.210938 252.453125 C 157.347656 252.453125 134.683594 229.789062 134.683594 201.929688 L 134.683594 175.054688 L 134.679688 175.046875 L 134.683594 175.042969 C 134.683594 174.949219 134.664062 174.859375 134.652344 174.769531 C 134.644531 174.683594 134.644531 174.59375 134.625 174.507812 C 134.609375 174.421875 134.574219 174.339844 134.546875 174.257812 C 134.523438 174.171875 134.503906 174.085938 134.46875 174.003906 C 134.4375 173.925781 134.386719 173.855469 134.347656 173.777344 C 134.304688 173.703125 134.269531 173.621094 134.222656 173.550781 C 134.175781 173.480469 134.113281 173.421875 134.0625 173.355469 C 134.003906 173.289062 133.957031 173.214844 133.894531 173.15625 C 133.832031 173.09375 133.757812 173.042969 133.691406 172.988281 C 133.628906 172.933594 133.566406 172.875 133.496094 172.828125 C 133.421875 172.777344 133.339844 172.742188 133.257812 172.699219 C 133.1875 172.660156 133.117188 172.613281 133.042969 172.582031 C 132.960938 172.546875 132.871094 172.527344 132.78125 172.5 C 132.699219 172.476562 132.625 172.441406 132.539062 172.425781 C 132.363281 172.390625 132.183594 172.371094 132 172.371094 C 131.996094 172.371094 131.992188 172.371094 131.984375 172.371094 L 108.839844 172.484375 C 108.8125 172.398438 108.78125 172.296875 108.746094 172.175781 L 101.6875 151.046875 C 101.191406 149.21875 99.699219 148.445312 98.5 148.472656 C 96.984375 148.519531 95.777344 149.625 95.4375 151.257812 L 88.578125 181.953125 L 78.78125 128.902344 C 78.40625 126.859375 76.882812 126.042969 75.574219 125.96875 C 74.242188 125.984375 72.746094 126.921875 72.40625 128.988281 L 62.257812 190.808594 L 57.085938 164.773438 C 56.835938 163.519531 55.734375 162.613281 54.453125 162.613281 L 40.03125 162.613281 C 38.546875 162.613281 37.347656 163.816406 37.347656 165.296875 C 37.347656 166.777344 38.546875 167.980469 40.03125 167.980469 L 52.25 167.980469 L 58.859375 201.230469 C 59.359375 203.738281 61.078125 204.621094 62.425781 204.621094 C 62.441406 204.621094 62.457031 204.621094 62.476562 204.621094 C 63.84375 204.597656 65.59375 203.644531 66.019531 201.035156 L 75.726562 141.902344 L 84.839844 191.253906 C 85.308594 193.789062 87.039062 194.707031 88.378906 194.722656 C 89.695312 194.722656 91.445312 193.878906 91.960938 191.425781 L 99 159.921875 L 103.613281 173.726562 C 104.300781 176.273438 105.996094 177.851562 108.050781 177.851562 L 129.316406 177.75 L 129.316406 201.929688 C 129.316406 231.117188 151.816406 255.140625 180.382812 257.59375 L 180.382812 306.292969 L 148.726562 306.292969 C 147.242188 306.292969 146.042969 307.496094 146.042969 308.976562 C 146.042969 310.457031 147.242188 311.660156 148.726562 311.660156 L 238.949219 311.660156 C 240.433594 311.660156 241.632812 310.457031 241.632812 308.976562 C 241.632812 307.496094 240.433594 306.292969 238.949219 306.292969 L 203.746094 306.292969 L 203.746094 257.59375 C 232.3125 255.140625 254.8125 231.117188 254.8125 201.929688 L 254.8125 177.75 L 276.089844 177.851562 C 278.128906 177.851562 279.828125 176.273438 280.472656 173.875 L 285.128906 159.921875 L 292.160156 191.390625 C 292.675781 193.851562 294.386719 194.722656 295.710938 194.722656 C 295.722656 194.722656 295.734375 194.722656 295.746094 194.722656 C 297.085938 194.707031 298.816406 193.789062 299.289062 191.253906 L 308.402344 141.902344 L 318.109375 201.035156 C 318.535156 203.644531 320.285156 204.597656 321.652344 204.621094 C 321.671875 204.621094 321.6875 204.621094 321.703125 204.621094 C 323.050781 204.621094 324.769531 203.738281 325.269531 201.230469 L 331.875 167.980469 L 344.097656 167.980469 C 345.582031 167.980469 346.78125 166.777344 346.78125 165.296875 C 346.78125 163.816406 345.582031 162.613281 344.097656 162.613281 " fill-opacity="1" fill-rule="nonzero"/></g></svg>