<svg xmlns="http://www.w3.org/2000/svg" xmlns:xlink="http://www.w3.org/1999/xlink" width="512" zoomAndPan="magnify" viewBox="0 0 384 383.999986" height="512" preserveAspectRatio="xMidYMid meet" version="1.0"><defs><clipPath id="0c212cffa9"><path d="M 16 49.988281 L 368 49.988281 L 368 334 L 16 334 Z M 16 49.988281 " clip-rule="nonzero"/></clipPath></defs><g clip-path="url(#0c212cffa9)"><path fill="#000000" d="M 327.675781 90.191406 L 203.699219 90.191406 C 201.890625 90.191406 200.195312 89.285156 199.0625 87.8125 L 184.246094 66.523438 C 176.777344 55.875 164.675781 49.535156 151.78125 49.535156 L 56.199219 49.535156 C 34.367188 49.535156 16.605469 67.316406 16.605469 89.171875 L 16.605469 293.921875 C 16.605469 315.777344 34.367188 333.558594 56.199219 333.558594 L 327.675781 333.558594 C 349.507812 333.558594 367.265625 315.777344 367.265625 293.921875 L 367.265625 129.828125 C 367.265625 107.96875 349.507812 90.191406 327.675781 90.191406 Z M 327.675781 90.191406 " fill-opacity="1" fill-rule="nonzero"/></g></svg>